<svg width="300" height="300" viewBox="0 0 300 300" fill="none" xmlns="http://www.w3.org/2000/svg">
<path fill-rule="evenodd" clip-rule="evenodd" d="M284.75 150.375C284.75 76.1617 224.588 16 150.375 16C76.1617 16 16 76.1617 16 150.375C16 171.854 21.0464 192.181 30.0266 210.211C31.3667 212.901 31.6509 215.648 31.0325 217.959L23.5875 245.785C18.4909 264.833 35.9171 282.259 54.965 277.163L82.7905 269.717C85.1017 269.099 87.8488 269.383 90.5394 270.723C108.569 279.704 128.896 284.75 150.375 284.75C224.588 284.75 284.75 224.588 284.75 150.375ZM150.375 34.75C214.233 34.75 266 86.5171 266 150.375C266 214.233 214.233 266 150.375 266C131.862 266 114.39 261.656 98.8988 253.94C92.6813 250.843 85.2466 249.651 77.9441 251.605L50.1187 259.05C45.0083 260.417 40.3329 255.742 41.7003 250.631L49.1454 222.806C51.0993 215.503 49.9068 208.069 46.81 201.851C39.0941 186.36 34.75 168.888 34.75 150.375C34.75 86.5171 86.5171 34.75 150.375 34.75Z" fill="#40C4FF"/>
</svg>
