<svg width="190" height="164" viewBox="0 0 190 164" fill="none" xmlns="http://www.w3.org/2000/svg">
<path d="M71.8831 52.0129C71.8831 48.6992 74.5694 46.0129 77.8831 46.0129H184C187.314 46.0129 190 48.6992 190 52.0129V125.013C190 128.327 187.314 131.013 184 131.013H170.61C167.297 131.013 164.61 133.699 164.61 137.013V158.198C164.61 159.979 162.456 160.872 161.196 159.612L134.355 132.77C133.23 131.645 131.703 131.013 130.112 131.013H77.8831C74.5694 131.013 71.8831 128.327 71.8831 125.013V52.0129Z" fill="url(#paint0_linear_2165_379)"/>
<g filter="url(#filter0_d_2165_379)">
<path d="M20 20C20 16.6863 22.6863 14 26 14H132.117C135.431 14 138.117 16.6863 138.117 20V93C138.117 96.3137 135.431 99 132.117 99H81.5142C79.9404 99 78.4296 99.6184 77.3074 100.722L49.3438 128.219C48.0791 129.463 45.9416 128.567 45.9416 126.793V105C45.9416 101.686 43.2553 99 39.9416 99H26C22.6863 99 20 96.3137 20 93V20Z" fill="url(#paint1_linear_2165_379)"/>
</g>
<defs>
<filter id="filter0_d_2165_379" x="0" y="0" width="158.117" height="154.797" filterUnits="userSpaceOnUse" color-interpolation-filters="sRGB">
<feFlood flood-opacity="0" result="BackgroundImageFix"/>
<feColorMatrix in="SourceAlpha" type="matrix" values="0 0 0 0 0 0 0 0 0 0 0 0 0 0 0 0 0 0 127 0" result="hardAlpha"/>
<feOffset dy="6"/>
<feGaussianBlur stdDeviation="10"/>
<feComposite in2="hardAlpha" operator="out"/>
<feColorMatrix type="matrix" values="0 0 0 0 0.0509804 0 0 0 0 0.0392157 0 0 0 0 0.172549 0 0 0 0.1 0"/>
<feBlend mode="normal" in2="BackgroundImageFix" result="effect1_dropShadow_2165_379"/>
<feBlend mode="normal" in="SourceGraphic" in2="effect1_dropShadow_2165_379" result="shape"/>
</filter>
<linearGradient id="paint0_linear_2165_379" x1="71.8831" y1="46.0129" x2="185.756" y2="130.577" gradientUnits="userSpaceOnUse">
<stop stop-color="#1565C0"/>
<stop offset="1" stop-color="#0F4888"/>
</linearGradient>
<linearGradient id="paint1_linear_2165_379" x1="20" y1="14" x2="134.253" y2="98.4481" gradientUnits="userSpaceOnUse">
<stop stop-color="#40C4FF"/>
<stop offset="0.495192" stop-color="#23B7FA"/>
<stop offset="1" stop-color="#03A9F4"/>
</linearGradient>
</defs>
</svg>
